<svg xmlns="http://www.w3.org/2000/svg" width="48" height="48" viewBox="0 0 48 48" fill="none">
<path d="M36.061 12.8774V41.9346H32.0921V26.037H16.4354V29.9695H28.1245V31.9991C28.1243 37.076 28.1161 42.1529 28.1293 47.2296C28.1301 47.5458 28.1469 47.7976 28.1833 47.9964C32.6229 47.2725 36.6567 45.3468 39.9438 42.5638V22.1278C39.9438 19.047 39.2606 15.6673 36.061 12.8774Z" fill="#FF2E4C"/>
<path d="M28.1937 14.0905H32.1596V5.37542C34.5459 5.89249 43.5972 11.8123 43.9662 21.0866V38.3127C46.8958 34.2961 48.6287 29.3509 48.6287 23.9988C48.6287 11.9094 39.8067 1.88475 28.2502 0C28.2161 0.203994 28.201 0.463484 28.1993 0.790525L28.1937 14.0905Z" fill="#FF2E4C"/>
<path d="M12.4339 35.119V6.06185H16.4028V21.9594H32.0595V18.0269H20.3704V15.9973C20.3706 10.9204 20.3788 5.8435 20.3656 0.766797C20.3648 0.450663 20.348 0.198827 20.3116 0C15.872 0.723931 11.8382 2.64963 8.55115 5.43264V25.8686C8.55115 28.9494 9.23432 32.3291 12.4339 35.119Z" fill="#FF2E4C"/>
<path d="M20.435 33.9096H16.4692V42.6247C14.0829 42.1077 5.03154 36.1878 4.66259 26.9135V9.6875C1.733 13.704 0 18.6493 0 24.0014C0 36.0908 8.82209 46.1154 20.3786 48.0001C20.4126 47.7962 20.4278 47.5367 20.4295 47.2096L20.435 33.9096Z" fill="#FF2E4C"/>
</svg>